<svg width="133" height="31" viewBox="0 0 133 31" fill="none" xmlns="http://www.w3.org/2000/svg">
<path d="M46.248 18.08C45.96 17.5253 45.56 17.1093 45.048 16.832C44.536 16.544 43.944 16.4 43.272 16.4C42.536 16.4 41.88 16.5653 41.304 16.896C40.728 17.2267 40.2747 17.696 39.944 18.304C39.624 18.912 39.464 19.616 39.464 20.416C39.464 21.216 39.624 21.9253 39.944 22.544C40.2747 23.152 40.728 23.6213 41.304 23.952C41.88 24.2827 42.536 24.448 43.272 24.448C44.264 24.448 45.0693 24.1707 45.688 23.616C46.3067 23.0613 46.6853 22.3093 46.824 21.36H42.648V19.904H48.776V21.328C48.6587 22.192 48.3493 22.9867 47.848 23.712C47.3573 24.4373 46.712 25.0187 45.912 25.456C45.1227 25.8827 44.2427 26.096 43.272 26.096C42.2267 26.096 41.272 25.856 40.408 25.376C39.544 24.8853 38.856 24.208 38.344 23.344C37.8427 22.48 37.592 21.504 37.592 20.416C37.592 19.328 37.8427 18.352 38.344 17.488C38.856 16.624 39.544 15.952 40.408 15.472C41.2827 14.9813 42.2373 14.736 43.272 14.736C44.456 14.736 45.5067 15.0293 46.424 15.616C47.352 16.192 48.024 17.0133 48.44 18.08H46.248ZM54.399 26.144C53.567 26.144 52.815 25.9573 52.143 25.584C51.471 25.2 50.943 24.6667 50.559 23.984C50.175 23.2907 49.983 22.4907 49.983 21.584C49.983 20.688 50.1803 19.8933 50.575 19.2C50.9697 18.5067 51.5083 17.9733 52.191 17.6C52.8737 17.2267 53.6363 17.04 54.479 17.04C55.3217 17.04 56.0843 17.2267 56.767 17.6C57.4497 17.9733 57.9883 18.5067 58.383 19.2C58.7777 19.8933 58.975 20.688 58.975 21.584C58.975 22.48 58.7723 23.2747 58.367 23.968C57.9617 24.6613 57.407 25.2 56.703 25.584C56.0097 25.9573 55.2417 26.144 54.399 26.144ZM54.399 24.56C54.8683 24.56 55.3057 24.448 55.711 24.224C56.127 24 56.463 23.664 56.719 23.216C56.975 22.768 57.103 22.224 57.103 21.584C57.103 20.944 56.9803 20.4053 56.735 19.968C56.4897 19.52 56.1643 19.184 55.759 18.96C55.3537 18.736 54.9163 18.624 54.447 18.624C53.9777 18.624 53.5403 18.736 53.135 18.96C52.7403 19.184 52.4257 19.52 52.191 19.968C51.9563 20.4053 51.839 20.944 51.839 21.584C51.839 22.5333 52.079 23.2693 52.559 23.792C53.0497 24.304 53.663 24.56 54.399 24.56ZM64.6021 26.144C63.7701 26.144 63.0181 25.9573 62.3461 25.584C61.6741 25.2 61.1461 24.6667 60.7621 23.984C60.3781 23.2907 60.1861 22.4907 60.1861 21.584C60.1861 20.688 60.3835 19.8933 60.7781 19.2C61.1728 18.5067 61.7115 17.9733 62.3941 17.6C63.0768 17.2267 63.8395 17.04 64.6821 17.04C65.5248 17.04 66.2875 17.2267 66.9701 17.6C67.6528 17.9733 68.1915 18.5067 68.5861 19.2C68.9808 19.8933 69.1781 20.688 69.1781 21.584C69.1781 22.48 68.9755 23.2747 68.5701 23.968C68.1648 24.6613 67.6101 25.2 66.9061 25.584C66.2128 25.9573 65.4448 26.144 64.6021 26.144ZM64.6021 24.56C65.0715 24.56 65.5088 24.448 65.9141 24.224C66.3301 24 66.6661 23.664 66.9221 23.216C67.1781 22.768 67.3061 22.224 67.3061 21.584C67.3061 20.944 67.1835 20.4053 66.9381 19.968C66.6928 19.52 66.3675 19.184 65.9621 18.96C65.5568 18.736 65.1195 18.624 64.6501 18.624C64.1808 18.624 63.7435 18.736 63.3381 18.96C62.9435 19.184 62.6288 19.52 62.3941 19.968C62.1595 20.4053 62.0421 20.944 62.0421 21.584C62.0421 22.5333 62.2821 23.2693 62.7621 23.792C63.2528 24.304 63.8661 24.56 64.6021 24.56ZM74.5333 17.04C75.2159 17.04 75.8186 17.1787 76.3413 17.456C76.8746 17.7227 77.2906 18.0587 77.5893 18.464V17.184H79.4293V26.144C79.4293 26.9547 79.2586 27.6747 78.9173 28.304C78.5759 28.944 78.0799 29.4453 77.4293 29.808C76.7893 30.1707 76.0213 30.352 75.1253 30.352C73.9306 30.352 72.9386 30.0693 72.1493 29.504C71.3599 28.9493 70.9119 28.192 70.8053 27.232H72.6133C72.7519 27.6907 73.0453 28.0587 73.4933 28.336C73.9519 28.624 74.4959 28.768 75.1253 28.768C75.8613 28.768 76.4533 28.544 76.9013 28.096C77.3599 27.648 77.5893 26.9973 77.5893 26.144V24.672C77.2799 25.088 76.8586 25.44 76.3253 25.728C75.8026 26.0053 75.2053 26.144 74.5333 26.144C73.7653 26.144 73.0613 25.952 72.4213 25.568C71.7919 25.1733 71.2906 24.6293 70.9173 23.936C70.5546 23.232 70.3733 22.4373 70.3733 21.552C70.3733 20.6667 70.5546 19.8827 70.9173 19.2C71.2906 18.5173 71.7919 17.9893 72.4213 17.616C73.0613 17.232 73.7653 17.04 74.5333 17.04ZM77.5893 21.584C77.5893 20.976 77.4613 20.448 77.2053 20C76.9599 19.552 76.6346 19.2107 76.2293 18.976C75.8239 18.7413 75.3866 18.624 74.9173 18.624C74.4479 18.624 74.0106 18.7413 73.6053 18.976C73.1999 19.2 72.8693 19.536 72.6133 19.984C72.3679 20.4213 72.2453 20.944 72.2453 21.552C72.2453 22.16 72.3679 22.6933 72.6133 23.152C72.8693 23.6107 73.1999 23.9627 73.6053 24.208C74.0213 24.4427 74.4586 24.56 74.9173 24.56C75.3866 24.56 75.8239 24.4427 76.2293 24.208C76.6346 23.9733 76.9599 23.632 77.2053 23.184C77.4613 22.7253 77.5893 22.192 77.5893 21.584ZM83.649 14.16V26H81.825V14.16H83.649ZM94.1238 21.376C94.1238 21.7067 94.1024 22.0053 94.0598 22.272H87.3238C87.3771 22.976 87.6384 23.5413 88.1078 23.968C88.5771 24.3947 89.1531 24.608 89.8358 24.608C90.8171 24.608 91.5104 24.1973 91.9158 23.376H93.8837C93.6171 24.1867 93.1318 24.8533 92.4278 25.376C91.7344 25.888 90.8704 26.144 89.8358 26.144C88.9931 26.144 88.2358 25.9573 87.5638 25.584C86.9024 25.2 86.3798 24.6667 85.9958 23.984C85.6224 23.2907 85.4358 22.4907 85.4358 21.584C85.4358 20.6773 85.6171 19.8827 85.9798 19.2C86.3531 18.5067 86.8704 17.9733 87.5318 17.6C88.2038 17.2267 88.9718 17.04 89.8358 17.04C90.6678 17.04 91.4091 17.2213 92.0598 17.584C92.7104 17.9467 93.2171 18.4587 93.5798 19.12C93.9424 19.7707 94.1238 20.5227 94.1238 21.376ZM92.2198 20.8C92.2091 20.128 91.9691 19.5893 91.4998 19.184C91.0304 18.7787 90.4491 18.576 89.7558 18.576C89.1264 18.576 88.5878 18.7787 88.1398 19.184C87.6918 19.5787 87.4251 20.1173 87.3398 20.8H92.2198ZM107.851 18.192C107.851 18.7573 107.718 19.2907 107.451 19.792C107.184 20.2933 106.758 20.704 106.171 21.024C105.584 21.3333 104.832 21.488 103.915 21.488H101.899V26H100.075V14.88H103.915C104.768 14.88 105.488 15.0293 106.075 15.328C106.672 15.616 107.115 16.0107 107.403 16.512C107.702 17.0133 107.851 17.5733 107.851 18.192ZM103.915 20C104.608 20 105.126 19.8453 105.467 19.536C105.808 19.216 105.979 18.768 105.979 18.192C105.979 16.976 105.291 16.368 103.915 16.368H101.899V20H103.915ZM111.415 14.16V26H109.591V14.16H111.415ZM113.201 21.552C113.201 20.6667 113.383 19.8827 113.745 19.2C114.119 18.5173 114.62 17.9893 115.249 17.616C115.889 17.232 116.593 17.04 117.361 17.04C118.055 17.04 118.657 17.1787 119.169 17.456C119.692 17.7227 120.108 18.0587 120.417 18.464V17.184H122.257V26H120.417V24.688C120.108 25.104 119.687 25.4507 119.153 25.728C118.62 26.0053 118.012 26.144 117.329 26.144C116.572 26.144 115.879 25.952 115.249 25.568C114.62 25.1733 114.119 24.6293 113.745 23.936C113.383 23.232 113.201 22.4373 113.201 21.552ZM120.417 21.584C120.417 20.976 120.289 20.448 120.033 20C119.788 19.552 119.463 19.2107 119.057 18.976C118.652 18.7413 118.215 18.624 117.745 18.624C117.276 18.624 116.839 18.7413 116.433 18.976C116.028 19.2 115.697 19.536 115.441 19.984C115.196 20.4213 115.073 20.944 115.073 21.552C115.073 22.16 115.196 22.6933 115.441 23.152C115.697 23.6107 116.028 23.9627 116.433 24.208C116.849 24.4427 117.287 24.56 117.745 24.56C118.215 24.56 118.652 24.4427 119.057 24.208C119.463 23.9733 119.788 23.632 120.033 23.184C120.289 22.7253 120.417 22.192 120.417 21.584ZM132.589 17.184L127.181 30.144H125.293L127.085 25.856L123.613 17.184H125.645L128.125 23.904L130.701 17.184H132.589Z" fill="white"/>
<path d="M42.78 3.05C42.6 2.70333 42.35 2.44333 42.03 2.27C41.71 2.09 41.34 2 40.92 2C40.46 2 40.05 2.10333 39.69 2.31C39.33 2.51667 39.0467 2.81 38.84 3.19C38.64 3.57 38.54 4.01 38.54 4.51C38.54 5.01 38.64 5.45333 38.84 5.84C39.0467 6.22 39.33 6.51333 39.69 6.72C40.05 6.92667 40.46 7.03 40.92 7.03C41.54 7.03 42.0433 6.85667 42.43 6.51C42.8167 6.16333 43.0533 5.69333 43.14 5.1H40.53V4.19H44.36V5.08C44.2867 5.62 44.0933 6.11667 43.78 6.57C43.4733 7.02333 43.07 7.38667 42.57 7.66C42.0767 7.92667 41.5267 8.06 40.92 8.06C40.2667 8.06 39.67 7.91 39.13 7.61C38.59 7.30333 38.16 6.88 37.84 6.34C37.5267 5.8 37.37 5.19 37.37 4.51C37.37 3.83 37.5267 3.22 37.84 2.68C38.16 2.14 38.59 1.72 39.13 1.42C39.6767 1.11333 40.2733 0.959999 40.92 0.959999C41.66 0.959999 42.3167 1.14333 42.89 1.51C43.47 1.87 43.89 2.38333 44.15 3.05H42.78ZM46.6244 1.97V4.01H49.0244V4.94H46.6244V7.07H49.3244V8H45.4844V1.04H49.3244V1.97H46.6244ZM55.2185 1.05V1.98H53.3685V8H52.2285V1.98H50.3685V1.05H55.2185ZM60.1107 1.05V8H58.9707V1.05H60.1107ZM66.0974 1.05V1.98H64.2474V8H63.1074V1.98H61.2474V1.05H66.0974ZM73.0196 8.07C72.3729 8.07 71.7763 7.92 71.2296 7.62C70.6896 7.31333 70.2596 6.89 69.9396 6.35C69.6263 5.80333 69.4696 5.19 69.4696 4.51C69.4696 3.83 69.6263 3.22 69.9396 2.68C70.2596 2.14 70.6896 1.72 71.2296 1.42C71.7763 1.11333 72.3729 0.959999 73.0196 0.959999C73.6729 0.959999 74.2696 1.11333 74.8096 1.42C75.3563 1.72 75.7863 2.14 76.0996 2.68C76.4129 3.22 76.5696 3.83 76.5696 4.51C76.5696 5.19 76.4129 5.80333 76.0996 6.35C75.7863 6.89 75.3563 7.31333 74.8096 7.62C74.2696 7.92 73.6729 8.07 73.0196 8.07ZM73.0196 7.08C73.4796 7.08 73.8896 6.97667 74.2496 6.77C74.6096 6.55667 74.8896 6.25667 75.0896 5.87C75.2963 5.47667 75.3996 5.02333 75.3996 4.51C75.3996 3.99667 75.2963 3.54667 75.0896 3.16C74.8896 2.77333 74.6096 2.47667 74.2496 2.27C73.8896 2.06333 73.4796 1.96 73.0196 1.96C72.5596 1.96 72.1496 2.06333 71.7896 2.27C71.4296 2.47667 71.1463 2.77333 70.9396 3.16C70.7396 3.54667 70.6396 3.99667 70.6396 4.51C70.6396 5.02333 70.7396 5.47667 70.9396 5.87C71.1463 6.25667 71.4296 6.55667 71.7896 6.77C72.1496 6.97667 72.5596 7.08 73.0196 7.08ZM83.4014 8H82.2614L78.8314 2.81V8H77.6914V1.04H78.8314L82.2614 6.22V1.04H83.4014V8Z" fill="white"/>
<path d="M2.53125 3.13733V23.8619C2.53139 23.9069 2.5448 23.9508 2.5698 23.9882C2.5948 24.0256 2.63028 24.0547 2.67179 24.072C2.71329 24.0893 2.75898 24.094 2.80312 24.0854C2.84726 24.0768 2.88788 24.0554 2.9199 24.0238L13.7109 13.5002L2.9199 2.97543C2.88788 2.94386 2.84726 2.92245 2.80312 2.91388C2.75898 2.90531 2.71329 2.90996 2.67179 2.92725C2.63028 2.94454 2.5948 2.9737 2.5698 3.01107C2.5448 3.04844 2.53139 3.09236 2.53125 3.13733ZM18.2355 9.17594L4.70496 1.72141L4.69652 1.71666C4.46344 1.5901 4.24195 1.90545 4.43285 2.08897L15.0393 12.2308L18.2355 9.17594ZM4.43391 24.9114C4.24195 25.0949 4.46344 25.4102 4.69758 25.2837L4.70602 25.2789L18.2355 17.8244L15.0393 14.7684L4.43391 24.9114ZM23.6978 12.1818L19.9194 10.1009L16.3666 13.5002L19.9194 16.8978L23.6978 14.8185C24.7256 14.2506 24.7256 12.7497 23.6978 12.1818Z" fill="white"/>
</svg>
