<svg xmlns="http://www.w3.org/2000/svg" width="35" height="35" viewBox="0 0 35 35" fill="none">
  <path d="M19.943 16.5582C20.2642 17.0531 20.5235 17.676 20.3509 17.8003C20.1783 17.9247 19.7645 17.5816 19.4704 17.1735C19.1763 16.7653 17.7374 20.3517 17.6246 20.5269C17.5413 20.6597 16.3874 21.6153 15.7055 22.5939C15.4776 22.9194 15.3304 23.991 15.2558 24.0448C14.9573 24.2599 14.6388 24.1794 14.0392 23.4457C13.4396 22.7121 12.4756 26.3426 13.2174 27.0623C14.4841 28.2913 16.698 32.7177 20.4741 33.3307C24.842 34.0397 29.6245 30.1394 30.1671 26.7968C30.7097 23.4541 29.9344 22.0268 30.4536 19.2343C30.8927 16.8715 32.8022 16.018 32.9947 14.8322C33.1566 13.835 31.7133 13.3516 31.2277 13.2727C30.365 13.1327 27.9744 13.8793 27.5019 16.7906C27.3182 17.9222 26.8288 18.8951 25.669 18.7068C24.5093 18.5186 23.4735 16.7174 22.8943 15.3508" fill="#BE8D68"/>
  <path d="M32.9931 14.8294C33.081 14.2877 32.6935 13.8974 32.2449 13.6413C32.51 15.6365 29.5854 15.2462 28.5328 21.7309C27.4802 28.2156 23.3999 29.489 21.7825 29.558C20.1671 29.6273 17.395 29.2741 15.7162 26.3595C15.2005 25.4645 14.4671 24.4641 13.6275 23.4958C13.1048 24.1153 12.6303 26.4929 13.2136 27.0612C14.4802 28.2903 16.6941 32.7167 20.4701 33.3296C24.8381 34.0386 29.6206 30.1383 30.1632 26.7957C30.7058 23.4531 29.9305 22.0257 30.4497 19.2332C30.8912 16.8688 32.8006 16.0152 32.9931 14.8294Z" fill="#BE8D68"/>
  <path d="M14.0374 23.4433C13.4378 22.7096 12.0652 20.6747 11.1278 19.637C10.1903 18.5994 9.24373 18.456 8.44293 19.3042C7.64218 20.1524 9.25722 22.1278 9.61859 22.6292C10.1716 23.3965 12.4757 26.3405 13.2156 27.0598" fill="#BE8D68"/>
  <path d="M17.625 20.5247C17.5141 20.7002 16.9412 20.7411 16.0408 19.3738C15.3517 18.3291 13.5389 15.3516 12.4112 13.9515C11.2835 12.5514 10.337 11.8994 9.37362 12.3794C8.41023 12.8593 8.69003 14.2309 9.48156 15.4693C10.4588 16.9974 11.61 18.5825 12.7142 20.1023C13.5777 21.2907 15.5544 23.8293 15.2562 24.0424" fill="#BE8D68"/>
  <path d="M22.8927 15.3483C22.3115 13.9813 19.751 9.46984 19.1542 8.21155C18.5554 6.95293 17.5041 6.78227 16.6927 7.17567C15.8813 7.56907 15.5002 8.55953 16.7841 11.0022C17.5942 12.5443 18.2501 13.9461 19.9431 16.5581L22.3698 16.7811L22.8927 15.3483Z" fill="#BE8D68"/>
  <path d="M19.4681 17.1729C19.174 16.7648 16.6704 12.5879 16.0982 11.6857C15.0237 9.99569 13.8714 6.56528 11.6544 7.65103C10.4889 8.22169 10.8805 9.387 11.1074 9.86655C11.3343 10.3462 14.4666 15.4199 14.7825 15.8584C15.0985 16.2969 17.7335 20.3489 17.6227 20.5244" fill="#BE8D68"/>
  <path d="M12.7119 20.1023C13.5266 21.2229 15.3306 23.5441 15.282 23.9831C15.6668 23.5534 15.3356 22.0417 14.8248 21.446C11.8683 18.0049 9.3143 12.819 8.8705 12.8891C8.58019 13.5359 8.88682 14.5391 9.47959 15.4673C10.4565 16.9973 11.6081 18.5804 12.7119 20.1023Z" fill="#BE8D68"/>
  <path d="M19.943 16.5581C20.2508 17.0343 20.5006 17.6268 20.3663 17.7821C21.7794 16.9798 19.6147 13.5951 18.4042 11.5761C17.4675 10.0135 17.4359 8.2168 16.7574 7.14499C16.7353 7.15378 16.713 7.16455 16.6927 7.17568C15.8813 7.56908 15.5002 8.55949 16.784 11.0022C17.5945 12.5423 18.2501 13.946 19.943 16.5581Z" fill="#BE8D68"/>
  <path d="M14.7848 15.8587C15.1007 16.2971 17.7358 20.3492 17.6249 20.5247C18.8326 19.3514 15.6271 14.8052 14.089 12.521C12.7546 10.5416 12.722 8.99187 11.2861 7.89183C10.5856 8.50298 10.91 9.44734 11.11 9.86486C11.3345 10.3461 14.4688 15.4203 14.7848 15.8587Z" fill="#BE8D68"/>
  <path d="M17.5396 20.5935C17.4162 20.6435 17.1841 20.614 16.8608 20.3474C17.0905 20.6071 17.3243 20.7274 17.5396 20.5935Z" fill="#BE8D68"/>
  <path d="M9.46648 26.5481C9.44238 26.5441 9.41898 26.5362 9.39787 26.5266C7.05984 25.3769 4.83006 22.2535 4.62808 19.8443C4.61713 19.7087 4.71655 19.591 4.85253 19.578C4.98813 19.5671 5.10586 19.6665 5.11878 19.8025C5.30596 22.0239 7.44965 25.0181 9.61587 26.0843C9.73778 26.1452 9.78821 26.2914 9.72724 26.4132C9.67818 26.5124 9.5708 26.565 9.46648 26.5481Z" fill="#955500"/>
  <path d="M10.1446 29.792C10.1265 29.7891 10.1087 29.7842 10.0893 29.7769C8.12972 28.9728 6.01103 27.068 4.27406 24.5497C2.65037 22.1959 1.73809 19.8239 1.8913 18.3598C1.9051 18.2241 2.02598 18.1264 2.16172 18.1402C2.29544 18.1537 2.3952 18.2749 2.38141 18.4106C2.24134 19.7429 3.14262 22.0431 4.67986 24.2696C6.36339 26.7112 8.40193 28.5516 10.2765 29.3213C10.4021 29.3726 10.4632 29.5163 10.4099 29.6415C10.3656 29.7496 10.2549 29.8099 10.1446 29.792Z" fill="#955500"/>
  <path d="M24.0252 10.2479C23.9168 10.2304 23.8303 10.1421 23.8198 10.0292C23.689 8.67774 22.4397 6.56808 21.0868 5.97162C20.9619 5.91632 20.9072 5.77154 20.9601 5.64832C21.0154 5.52347 21.1605 5.46671 21.2834 5.52165C22.8077 6.19125 24.1597 8.46791 24.3074 9.98073C24.3204 10.1167 24.2226 10.2367 24.0867 10.2497C24.066 10.2504 24.0453 10.2512 24.0252 10.2479Z" fill="#955500"/>
  <path d="M27.015 11.176C26.9067 11.1584 26.8201 11.0703 26.8099 10.9553C26.4803 7.22606 23.5349 3.88143 21.6494 3.21706C21.5208 3.17148 21.4551 3.03107 21.4983 2.90424C21.5439 2.77573 21.6843 2.70997 21.8111 2.75321C23.866 3.47802 26.9463 6.93101 27.297 10.9108C27.3079 11.0465 27.2081 11.1662 27.0745 11.1774C27.0558 11.1785 27.0331 11.1789 27.015 11.176Z" fill="#955500"/>
  <path d="M31.3913 13.711C32.238 13.6961 32.3692 13.8141 32.2452 13.6395C31.8683 13.4239 31.4471 13.3041 31.2264 13.2682C30.3636 13.1282 27.9731 13.8748 27.5005 16.7861C27.3169 17.9177 26.8274 18.8906 25.6677 18.7023C25.2103 18.6281 24.7728 18.3037 24.3745 17.8519C26.0433 20.4354 27.985 18.5719 28.4639 17.1566C28.9424 15.7434 28.905 13.7542 31.3913 13.711Z" fill="#B37E53"/>
  <path d="M16.4077 7.35611C15.8116 7.84417 15.6619 8.86806 16.7837 11.0024C17.5939 12.5445 18.2498 13.9462 19.9427 16.5582C20.2639 17.0532 20.5232 17.6759 20.3506 17.8003C21.0788 15.4968 18.0982 12.6346 17.2956 10.6777C16.6578 9.1265 16.6201 8.26785 16.4077 7.35611Z" fill="#B37E53"/>
  <path d="M14.7844 15.859C15.1004 16.2974 17.7354 20.3494 17.6246 20.525C18.4149 20.1344 18.059 19.2694 17.143 17.9984C15.264 15.3911 12.6329 11.873 11.7798 9.18729C11.6995 8.93331 11.5068 8.72495 11.2515 8.64847C10.5877 8.45011 10.9343 9.49893 11.1076 9.86478C11.3342 10.3464 14.4684 15.4206 14.7844 15.859Z" fill="#B37E53"/>
  <path d="M9.47992 15.4673C10.4572 16.9953 11.6084 18.5805 12.7126 20.1003C13.5761 21.2886 15.5528 23.8273 15.2545 24.0404C16.8942 23.0607 10.9054 17.5829 8.87083 12.8891C8.58253 13.5363 8.88687 14.5412 9.47992 15.4673Z" fill="#B37E53"/>
  <path d="M14.9199 24.2371C15.0652 24.2051 15.1478 24.1525 15.181 24.0879C14.9032 24.2385 14.5893 24.1175 14.0377 23.4431C13.4381 22.7095 12.0654 20.6745 11.1281 19.6369C10.7161 19.1808 10.3028 18.8975 9.89941 18.7949C10.424 19.2549 10.1316 19.3433 11.2699 20.5516C11.8795 21.1983 13.9721 24.4436 14.9199 24.2371Z" fill="#B37E53"/>
  <path d="M14.2707 17.4906C15.0307 18.796 16.5675 20.9997 17.4836 20.6089C17.2421 20.65 16.741 20.4389 16.0404 19.3759C15.3512 18.3312 13.5385 15.3537 12.4108 13.9536C11.4973 12.8189 10.7036 12.1774 9.92324 12.2278C11.9956 13.3014 13.5527 16.2559 14.2707 17.4906Z" fill="#B37E53"/>
  <path d="M16.1012 12.6974C17.3453 14.5858 19.0575 18.208 20.2877 17.8229C20.0916 17.8508 19.7327 17.5372 19.4705 17.1733C19.1764 16.7653 16.6728 12.5884 16.1006 11.6862C15.3558 10.515 14.5733 8.50999 13.4263 7.74927C14.5147 8.93495 15.0936 11.1664 16.1012 12.6974Z" fill="#B37E53"/>
  <path d="M24.3737 17.8559C23.7613 17.1634 23.2438 16.1774 22.8905 15.3479C22.3092 13.9809 19.7487 9.46939 19.152 8.2111C18.9692 7.82722 18.7451 7.54581 18.499 7.34937C18.7795 7.93029 18.863 8.7099 19.5355 9.76836C20.615 11.4654 21.9074 14.414 22.3524 15.4273C22.7975 16.4406 23.4409 18.5282 24.3737 17.8559Z" fill="#B37E53"/>
  <path d="M26.5642 31.7139C26.2665 30.4403 25.6681 29.5977 24.522 30.1119C21.3928 31.5149 18.2426 30.357 14.7024 26.401C11.544 22.8715 10.0053 20.4636 8.35908 19.4159C7.77876 20.3143 9.27456 22.1489 9.62082 22.6293C10.1738 23.3966 12.478 26.3406 13.2179 27.0599C14.4845 28.289 16.6984 32.7154 20.4744 33.3283C22.5792 33.67 24.7839 32.9385 26.5642 31.7139Z" fill="#B37E53"/>
  <path d="M30.4518 19.2316C30.8909 16.8688 32.8005 16.0153 32.993 14.8295C33.0496 14.4804 32.9087 14.1939 32.6822 13.9656C32.8474 14.9397 31.9638 15.6385 30.6159 16.8509C29.1571 18.1627 28.5072 20.4665 28.9631 22.9478C29.419 25.4291 27.8427 28.4928 25.9768 29.2422C24.111 29.9916 21.1249 34.1279 15.4883 27.9907C15.4866 27.9883 15.4866 27.9883 15.4849 27.986C15.1493 27.5547 14.8125 27.1684 14.4569 26.8595C12.0028 24.7252 10.6944 22.9539 9.7261 21.485C9.53603 21.1967 9.07037 20.1327 8.28091 20.3279C8.51429 21.2244 9.36621 22.2812 9.61663 22.6287C10.1696 23.3959 12.4738 26.3399 13.2137 27.0592C13.3096 27.1531 13.4127 27.2666 13.5198 27.3931C13.5474 27.4264 13.5769 27.4601 13.6041 27.4954C13.6108 27.5047 13.6196 27.5143 13.6263 27.5237C13.6454 27.5453 13.6623 27.5686 13.6811 27.5923C13.6844 27.5969 13.6898 27.6019 13.6929 27.6086C14.4165 28.5168 15.3774 29.9804 16.6461 31.2098C16.6461 31.2098 16.6481 31.2102 16.6478 31.2122C16.7598 31.321 16.8726 31.4258 16.9896 31.5292C16.9913 31.5315 16.9933 31.5318 16.995 31.5342C17.1101 31.6373 17.2278 31.7367 17.3478 31.8344C17.3499 31.8347 17.3495 31.8368 17.3515 31.8371C18.2485 32.5655 19.2822 33.1369 20.468 33.3294C24.8359 34.0384 29.6184 30.1381 30.161 26.7954C30.7036 23.4528 29.9326 22.0241 30.4518 19.2316Z" fill="#B37E53"/>
</svg>